<svg version="1.1" xmlns="http://www.w3.org/2000/svg" xmlns:xlink="http://www.w3.org/1999/xlink" x="0px" y="0px" viewBox="0 0 468.3 81.1" style="enable-background:new 0 0 468.3 81.1;" xml:space="preserve">
  <path d="M460.2,3c0.1-0.1,0.1-0.3,0.1-0.4V1.8c0-0.2-0.1-0.3-0.2-0.5c-0.1-0.1-0.4-0.3-0.8-0.3h-0.1l-11.8,0.4
      c-3.4,0-10-0.4-10.2-0.4c-0.5,0-0.7,0.2-0.9,0.3c-0.1,0.1-0.2,0.3-0.2,0.5v0.8c0,0.1,0,0.3,0.1,0.4c0.1,0.1,0.2,0.2,0.4,0.3
      c0.3,0.2,0.8,0.3,1.3,0.4l2,0.5l2.3,0.7c3.1,1.2,6.2,3.9,6.2,11.2v46.5c0,0.9-1,0.8-1.7,0L398.2,3.6L396.9,2c-0.5-0.5-1.1-1-1.7-1
      l-6.6,0.2c-1.9,0-5.1-0.2-5.1-0.2c-0.3,0-0.6,0.1-0.9,0.3c0,0,0,0,0,0c-0.1,0.1-0.2,0.3-0.2,0.5v0.8c0,0.1,0,0.3,0.1,0.4
      c0.1,0.1,0.3,0.3,0.6,0.4c0.2,0.1,0.5,0.2,0.8,0.2l2,0.6c0.8,0.2,1.6,0.5,2.5,1c3.3,1.8,6.8,7,6.8,15.8v44.8c0,7.8-2.5,9.2-4.9,10.4
      l-1.8,0.7l-1.6,0.5c-0.4,0.2-0.8,0.3-1.1,0.4c-0.1,0.1-0.2,0.1-0.2,0.2c-0.1,0.1-0.1,0.3-0.1,0.4v0.8c0,0.2,0.1,0.3,0.2,0.5
      c0,0,0.1,0.1,0.2,0.1c0.2,0.1,0.5,0.2,1,0.2l4.1-0.2l6.4-0.1c2.4,0,7.4,0.1,7.4,0.1l4.6,0.2c0.8,0,1.1-0.4,1.2-0.9v-0.7
      c0-0.1,0-0.3-0.1-0.4c-0.1-0.1-0.1-0.2-0.3-0.3c-0.3-0.2-0.7-0.3-1.1-0.4l-3.4-0.7c-2.5-0.7-4.9-2.3-4.9-7.3V24.6
      c0-2.2,0.3-2.6,0.8-2.6c0.4,0,0.9,0.5,1.4,1l1,1.1L448,77.8c1.4,1.7,2.6,3.3,3.6,3.3c0.3,0,2.2-0.2,2.6-1c0.4-0.6-0.3-5.8-0.3-14.8
      V11.1c0-4.1,1.5-5.6,3.2-6.5l2.2-1.1c0.1-0.1,0.3-0.1,0.4-0.2C460,3.3,460.2,3.1,460.2,3L460.2,3z M214,3c0.1-0.1,0.1-0.3,0.1-0.4
      V1.8c0-0.2-0.1-0.3-0.2-0.5c-0.1-0.1-0.4-0.3-0.8-0.3H213l-11.8,0.4c-3.4,0-10-0.4-10.2-0.4c-0.5,0-0.7,0.2-0.9,0.3
      C190,1.5,190,1.7,190,1.8v0.8c0,0.1,0,0.3,0.1,0.4c0.1,0.1,0.2,0.2,0.4,0.3c0.3,0.2,0.8,0.3,1.3,0.4l2,0.5L196,5
      c3.1,1.2,6.2,3.9,6.2,11.2v46.5c0,0.9-1,0.8-1.7,0L151.9,3.6L150.7,2c-0.5-0.5-1.1-1-1.7-1l-6.6,0.2c-1.9,0-5.1-0.2-5.1-0.2
      c-0.3,0-0.6,0.1-0.9,0.3c0,0,0,0,0,0c-0.1,0.1-0.2,0.3-0.2,0.5v0.8c0,0.1,0,0.3,0.1,0.4c0.1,0.1,0.3,0.3,0.6,0.4
      c0.2,0.1,0.5,0.2,0.8,0.2l2,0.6c0.8,0.2,1.6,0.5,2.5,1c3.3,1.8,6.8,7,6.8,15.8v44.8c0,7.8-2.5,9.2-4.9,10.4l-1.8,0.7l-1.6,0.5
      c-0.4,0.2-0.8,0.3-1.1,0.4c-0.1,0.1-0.2,0.1-0.2,0.2c-0.1,0.1-0.1,0.3-0.1,0.4v0.8c0,0.2,0.1,0.3,0.2,0.5c0,0,0.1,0.1,0.2,0.1
      c0.2,0.1,0.5,0.2,1,0.2l4.1-0.2l7.1-0.1c2.4,0,6.7,0.1,6.7,0.1l4.6,0.2c0.8,0,1.1-0.4,1.2-0.9v-0.7c0-0.1,0-0.3-0.1-0.4
      c-0.1-0.1-0.1-0.2-0.3-0.3c-0.3-0.2-0.7-0.3-1.1-0.4l-3.4-0.7c-2.5-0.7-4.9-2.3-4.9-7.3V24.6c0-2.2,0.3-2.6,0.8-2.6
      c0.4,0,0.9,0.5,1.4,1l1,1.1l44.1,53.7c1.4,1.7,2.6,3.3,3.6,3.3c0.3,0,2.2-0.2,2.6-1c0.4-0.6-0.3-5.8-0.3-14.8V11.1
      c0-4.1,1.5-5.6,3.2-6.5l2.2-1.1c0.1-0.1,0.3-0.1,0.4-0.2C213.7,3.3,213.9,3.1,214,3L214,3z M39.3,1c-4.8,0-6.7,0.1-10.6,0.2
      L17.3,1.4l-5-0.2L7.3,1C7,1,6.8,1.1,6.6,1.1C6.5,1.2,6.4,1.3,6.3,1.3C6.2,1.5,6.1,1.6,6.1,1.8v0.8c0,0.1,0,0.3,0.1,0.4
      c0.1,0.1,0.2,0.2,0.4,0.3c0.2,0.1,0.3,0.1,0.5,0.2l1.5,0.4l1.7,0.5c2.3,0.9,4.6,2.9,4.6,8.5v55.6c0,5.3-2,7.3-4,8.2l-1.5,0.6
      l-1.3,0.4c0,0,0,0,0,0c-0.2,0.1-0.4,0.3-0.5,0.4c-0.1,0.1-0.1,0.3-0.1,0.4v0.8c0,0.2,0.1,0.3,0.2,0.5C7.9,79.8,8.1,80,8.5,80
      l12.1-0.2l8.6,0.1l6.2,0.2c31,0,43.2-13.6,43.2-41C78.6,13.4,59.1,1,39.3,1L39.3,1z M39.3,74.1c-6.4,0-10.6-1-14.3-4.4
      c-0.7-0.7-1.2-1.9-1.2-3.7V13.1c0-4.8,0.5-6.5,11.1-6.5c21.3,0.1,33.3,10.1,33.3,32.9S55.2,74.1,39.3,74.1L39.3,74.1z M134.4,63.9
      l-1.1,1.3c-1.3,1.5-2.9,2.8-4.6,3.9c-4.4,2.9-9.4,5.3-22.2,5.3c-4.7,0-6.8-0.7-7.8-2.2c-0.5-0.7-0.7-1.7-0.7-2.9V45.8
      c0,0,0-1.8,0.1-2.4c0.1-0.6,0.7-1.2,1.9-1.2l14.2-0.1c4.7,0,6.1,2.5,6.7,4.9l0.7,3.4c0.1,0.2,0.1,0.4,0.2,0.6l0,0c0,0,0,0.1,0,0.1
      c0.2,0.4,0.4,0.6,0.7,0.8c0.1,0,0.1,0,0.2,0h0.8c0.1,0,0.1,0,0.2,0c0.4-0.2,0.6-0.6,0.6-1.3l-0.2-8.8l0.2-11.9c0-0.4-0.1-1-0.3-1.4
      c0,0-0.1-0.3-0.5-0.3h-0.8c-0.1,0-0.3,0-0.4,0.1c-0.2,0.1-0.4,0.3-0.5,0.8h0l-0.4,1.4l-0.6,1.6c-1,2.2-3.2,4.5-9,4.5h-9.7l-2.6-0.1
      c-0.6-0.1-1-0.2-1.2-0.4c-0.2-0.2-0.4-0.6-0.4-1.1l0-2.2V11.3l0.1-1.8c0.2-1,0.5-1.7,1.1-2.1c0.6-0.4,1.6-0.6,3.1-0.7l6.2-0.1l2.1,0
      c1.8,0,4.5,0,6.4,0.2c3.8,0.3,7,0.4,8.4,2.3c0.7,0.9,1.3,2.5,1.5,3.5l0.9,3c0,0.2,0.1,0.3,0.1,0.4c0.2,0.3,0.3,0.4,0.5,0.5
      c0.1,0.1,0.3,0.1,0.4,0.1l1-0.1c0.2,0,0.3-0.1,0.5-0.2c0.1-0.1,0.2-0.3,0.2-0.5c0.2-1.4-0.8-4.6-1.2-12.4C129.2,2.1,129,1,127.9,1
      l-7.5,0.2l-10.3,0.2c-3.3,0-17.6,0.2-27.3-0.4c-1.2-0.1-2,0-2.4,0.1c-0.1,0.1-0.2,0.1-0.2,0.2C80.1,1.4,80,1.6,80,1.8v0.8
      c0,0.1,0,0.3,0.1,0.4c0.1,0.1,0.2,0.2,0.4,0.3c0.2,0.1,0.4,0.1,0.6,0.2l2,0.5c3,0.5,4.5,2,5.3,4.1c0.4,1,0.6,2.2,0.7,3.4l0.1,3.9
      v50.9c0,5.2-0.2,8.4-3.1,9.7l-2.3,1l-1.6,0.6c-0.2,0.1-0.3,0.2-0.5,0.2c-0.1,0-0.1,0.1-0.2,0.2c-0.1,0.1-0.1,0.3-0.1,0.4l0,0.8
      c0,0.2,0.1,0.3,0.2,0.5c0.1,0.1,0.3,0.2,0.5,0.3c0.2,0,0.4,0,0.6,0l13.7-0.4c4.2-0.1,8.5,0,12.7,0.1l10.4,0.3h3.3
      c1-0.1,1.9-0.2,2.7-0.4c1.7-0.4,3.2-1.4,5-3.4c2.7-2.9,5.2-7.5,5.6-11.5C136.1,64,134.9,63.1,134.4,63.9L134.4,63.9z M247.1,79.7
      c0.1-0.1,0.2-0.3,0.2-0.5v-0.8c0-0.1,0-0.3-0.1-0.4c-0.1-0.2-0.3-0.4-0.7-0.5l-0.4-0.1l-3.4-0.9c-2.5-0.7-5-2-5-5.8V10.7
      c0-4.2,2-5.6,4-6.4l2.8-0.8c0.1,0,0.2-0.1,0.2-0.1c0.2-0.1,0.4-0.3,0.5-0.4c0.1-0.1,0.1-0.3,0.1-0.4V1.8c0-0.2-0.1-0.3-0.2-0.5
      c-0.1-0.1-0.3-0.2-0.7-0.3c-0.3,0-0.6,0-0.9,0c0,0-6.1,0.4-10.4,0.4c-4.3,0-11.9-0.4-11.9-0.4c-0.1,0-0.1,0-0.2,0
      c-0.4,0.1-0.6,0.2-0.7,0.3c-0.1,0.1-0.2,0.3-0.2,0.5v0.8c0,0.1,0,0.3,0.1,0.4c0.1,0.1,0.2,0.2,0.4,0.4c0.2,0.1,0.4,0.2,0.7,0.2
      l3,0.8c2.2,0.8,4.4,2.1,4.5,6.2v57.5c0,5.5-2.2,7.4-4.4,8.2l-1.6,0.5l-1.4,0.4c-0.1,0-0.2,0.1-0.4,0.1c-0.4,0.1-0.6,0.3-0.7,0.5
      c-0.1,0.1-0.1,0.3-0.1,0.4v0.8c0,0.1,0,0.2,0.1,0.3c0.3,0.4,0.9,0.6,2.1,0.6l3.4-0.2c1.6-0.1,3.9-0.2,7.4-0.2l6.9,0.2l5.3,0.2
      c0.5,0,0.9,0,1.2-0.1C246.8,79.9,247,79.8,247.1,79.7L247.1,79.7z M281.5,33.7l-8.3-2.5c-2.7-0.9-3.8-1.4-6-2.4
      c-3.9-1.8-6.9-3.9-6.9-9.2c-0.1-9.6,8.3-14.1,17.1-14.1c9.8,0,17.3,2.9,20.7,12.5c0.2,0.6,0.5,1.6,1,2.3l0,0
      c0.1,0.2,0.3,0.4,0.4,0.5c0.3,0.3,0.7,0.4,1.1,0.3l0.6-0.2c0.2-0.1,0.3-0.2,0.4-0.4c0.1-0.1,0.1-0.3,0.1-0.6c0-0.1,0-0.2,0-0.3
      l0-0.2v0l0,0L300,4.4c-0.1-1.2-0.7-1.6-1.3-1.6c-0.7,0.1-1.2,0.8-1.5,0.9c-0.2,0.1-0.5,0.3-0.9,0.3c-0.4,0-0.9-0.2-1.7-0.6l-3.2-1.4
      c-2.8-1-7.1-2-13.9-2c-12.9,0-24.8,6.8-24.8,20.9s11.4,18.9,22.7,22.2l8.3,2.5c2.7,0.9,5.1,1.8,7.3,3c3.3,1.8,6.1,5.4,6.1,10.8
      c0,10.4-9.3,16-19.9,16c-15.6,0-21.6-9.7-22.9-14.9l-0.3-1.5l-0.3-1.2c0-0.1-0.1-0.2-0.2-0.3c-0.1-0.2-0.2-0.3-0.3-0.4
      c-0.2-0.1-0.4-0.1-0.6-0.1l-0.9,0.2c-0.2,0-0.3,0.1-0.4,0.2c-0.2,0.1-0.3,0.4-0.4,0.8c0,0.6,0,1.3,0.2,2.1l2.9,14.4
      c0.5,2,10.6,5.8,18.9,6.1c26.9,0.9,31.2-12.4,31.2-23.4C303.9,40.9,292.9,37.1,281.5,33.7L281.5,33.7z M347.9,81
      c-21.5,0-38.4-14.8-38.4-40.3C309.6,17,326.8,0,347.9,0S386,16.6,386,40.4S368.5,81,347.9,81L347.9,81z M345.5,5.1
      c-14.5,0-25.2,13.4-25.2,33.5c0,23.9,11.9,37.5,29.9,37.5c14.6,0,25-12.7,25-33.8C375.3,18.4,362.8,5.1,345.5,5.1L345.5,5.1z"></path>
    </svg>
